<svg xmlns="http://www.w3.org/2000/svg" width="16.259" height="16.259" viewBox="0 0 16.259 16.259">
  <path id="Path_40" data-name="Path 40" d="M8.129,1.445a24.926,24.926,0,0,1,3.252.09,4.189,4.189,0,0,1,1.536.271,3.172,3.172,0,0,1,1.536,1.536,4.19,4.19,0,0,1,.271,1.536c0,.813.09,1.084.09,3.252a24.926,24.926,0,0,1-.09,3.252,4.19,4.19,0,0,1-.271,1.536,3.172,3.172,0,0,1-1.536,1.536,4.19,4.19,0,0,1-1.536.271c-.813,0-1.084.09-3.252.09a24.926,24.926,0,0,1-3.252-.09,4.19,4.19,0,0,1-1.536-.271,3.172,3.172,0,0,1-1.536-1.536,4.189,4.189,0,0,1-.271-1.536c0-.813-.09-1.084-.09-3.252a24.926,24.926,0,0,1,.09-3.252,4.189,4.189,0,0,1,.271-1.536,3.244,3.244,0,0,1,.632-.9,1.527,1.527,0,0,1,.9-.632,4.189,4.189,0,0,1,1.536-.271,24.926,24.926,0,0,1,3.252-.09M8.129,0A26.689,26.689,0,0,0,4.787.09,5.576,5.576,0,0,0,2.8.452a3.536,3.536,0,0,0-1.445.9A3.536,3.536,0,0,0,.452,2.8,4.116,4.116,0,0,0,.09,4.787,26.689,26.689,0,0,0,0,8.129a26.689,26.689,0,0,0,.09,3.342,5.576,5.576,0,0,0,.361,1.987,3.536,3.536,0,0,0,.9,1.445,3.536,3.536,0,0,0,1.445.9,5.576,5.576,0,0,0,1.987.361,26.689,26.689,0,0,0,3.342.09,26.689,26.689,0,0,0,3.342-.09,5.576,5.576,0,0,0,1.987-.361,3.79,3.79,0,0,0,2.348-2.348,5.576,5.576,0,0,0,.361-1.987c0-.9.09-1.174.09-3.342a26.689,26.689,0,0,0-.09-3.342A5.576,5.576,0,0,0,15.807,2.8a3.536,3.536,0,0,0-.9-1.445,3.536,3.536,0,0,0-1.445-.9A5.576,5.576,0,0,0,11.471.09,26.689,26.689,0,0,0,8.129,0m0,3.974A4.088,4.088,0,0,0,3.974,8.129,4.155,4.155,0,1,0,8.129,3.974m0,6.865a2.661,2.661,0,0,1-2.71-2.71,2.661,2.661,0,0,1,2.71-2.71,2.661,2.661,0,0,1,2.71,2.71,2.661,2.661,0,0,1-2.71,2.71M12.465,2.8a.994.994,0,1,0,.994.994,1,1,0,0,0-.994-.994" fill="#ececec" fill-rule="evenodd"/>
</svg>
