<svg xmlns="http://www.w3.org/2000/svg" width="16.259" height="13.188" viewBox="0 0 16.259 13.188">
  <path id="Path_39" data-name="Path 39" d="M43.149,15.188A9.4,9.4,0,0,0,52.633,5.7V5.252a7.342,7.342,0,0,0,1.626-1.716,7.5,7.5,0,0,1-1.9.542,3.514,3.514,0,0,0,1.445-1.807,8.285,8.285,0,0,1-2.078.813A3.226,3.226,0,0,0,49.291,2a3.394,3.394,0,0,0-3.342,3.342,1.761,1.761,0,0,0,.09.723,9.339,9.339,0,0,1-6.865-3.523,3.459,3.459,0,0,0-.452,1.716,3.589,3.589,0,0,0,1.445,2.8,3.045,3.045,0,0,1-1.536-.452h0a3.3,3.3,0,0,0,2.71,3.252,2.785,2.785,0,0,1-.9.09,1.537,1.537,0,0,1-.632-.09,3.422,3.422,0,0,0,3.161,2.348,6.82,6.82,0,0,1-4.155,1.445,2.5,2.5,0,0,1-.813-.09,8.526,8.526,0,0,0,5.149,1.626" transform="translate(-38 -2)" fill="#2c2c2c" fill-rule="evenodd"/>
</svg>
